<svg id="Layer_1" data-name="Layer 1" xmlns="http://www.w3.org/2000/svg" viewBox="0 0 96.68 95.49"><defs><style>.cls-1{fill:#d7598b;}.cls-2{fill:#fff;}</style></defs><path class="cls-1" d="M318.71,335.31c17.31-1,20.25-15.88,20.28-16a.85.85,0,0,0-.57-.95l-4.49-1.45,3.58-3a.84.84,0,0,0,.12-1.17c-.22-.28-5.64-7.09-16.79-7.09a35,35,0,0,0-13.42,3,30.25,30.25,0,0,0-3,1.5,26.57,26.57,0,0,0,3.16-6.45c6.71-20.54-7.17-27.31-7.32-27.38a.82.82,0,0,0-1,.22l-3.05,3.63-1.4-4.45a.84.84,0,0,0-.88-.58c-.17,0-16.83,1.76-15.95,23.5a38.68,38.68,0,0,0,1.86,10,27.93,27.93,0,0,0-9.17-9.33,26.44,26.44,0,0,0-13.28-3.86,19.58,19.58,0,0,0-11.3,3.33.84.84,0,0,0-.16,1.17l2.82,3.77h-5.17a.84.84,0,0,0-.8.6,16.13,16.13,0,0,0,1.55,11.55c2.55,4.6,7.36,7.92,14.32,9.86A46.28,46.28,0,0,0,271,327.16c-5.91,1-10.6,2.86-14,5.62-14.35,11.79-8.73,23.8-8.67,23.91a.84.84,0,0,0,.9.46l4.7-.82-1.8,4.33a.85.85,0,0,0,.38,1.07,21.44,21.44,0,0,0,9.34,2.06c5.22,0,12.91-1.92,19.84-11.07a28.83,28.83,0,0,0,4.47-8.92,24.11,24.11,0,0,0,1.9,10.45c6.84,14.77,17.54,16.36,21.83,16.36a13.92,13.92,0,0,0,2.78-.24.82.82,0,0,0,.66-.85l-.16-4.66,3.94,2.32a.84.84,0,0,0,1.11-.22c.1-.14,9.9-13.9-4.67-29a25.89,25.89,0,0,0-3.59-3.08A39.69,39.69,0,0,0,318.71,335.31Z" transform="translate(-242.32 -275.12)"/><path class="cls-2" d="M286.57,331.15a3.39,3.39,0,0,1-4.85,1.85,2.89,2.89,0,0,1-.93-3.9,3.47,3.47,0,0,1,3.52-1.59A3,3,0,0,1,286.57,331.15Z" transform="translate(-242.32 -275.12)"/><path class="cls-2" d="M284.13,322.78a3.38,3.38,0,0,1-4.85,1.85,2.89,2.89,0,0,1-.93-3.9,3.5,3.5,0,0,1,3.53-1.59A3,3,0,0,1,284.13,322.78Z" transform="translate(-242.32 -275.12)"/><path class="cls-2" d="M286.41,314.64a3.51,3.51,0,0,1,3.52-1.6,3,3,0,0,1,2.26,3.65,3.38,3.38,0,0,1-4.85,1.84A2.9,2.9,0,0,1,286.41,314.64Z" transform="translate(-242.32 -275.12)"/><path class="cls-2" d="M296.86,331.91a3.39,3.39,0,0,1-4.85,1.85,2.9,2.9,0,0,1-.92-3.9,3.44,3.44,0,0,1,3.51-1.59A3,3,0,0,1,296.86,331.91Z" transform="translate(-242.32 -275.12)"/><path class="cls-2" d="M299.94,322.37a3.38,3.38,0,0,1-4.85,1.85,2.89,2.89,0,0,1-.92-3.9,3.46,3.46,0,0,1,3.52-1.59A3,3,0,0,1,299.94,322.37Z" transform="translate(-242.32 -275.12)"/></svg>